<svg width="67" height="10" viewBox="0 0 67 10" fill="none" xmlns="http://www.w3.org/2000/svg">
<path d="M5.712 0.624V6.504C5.712 7.32 5.476 7.956 5.004 8.412C4.532 8.86 3.9 9.084 3.108 9.084C2.308 9.084 1.66 8.852 1.164 8.388C0.676 7.924 0.432 7.276 0.432 6.444H2.112C2.12 6.804 2.204 7.084 2.364 7.284C2.532 7.484 2.772 7.584 3.084 7.584C3.388 7.584 3.62 7.488 3.78 7.296C3.94 7.104 4.02 6.84 4.02 6.504V0.624H5.712ZM10.4198 9.084C9.63575 9.084 8.91575 8.9 8.25975 8.532C7.60375 8.164 7.08375 7.656 6.69975 7.008C6.31575 6.352 6.12375 5.612 6.12375 4.788C6.12375 3.972 6.31575 3.24 6.69975 2.592C7.08375 1.936 7.60375 1.424 8.25975 1.056C8.91575 0.688 9.63575 0.504 10.4198 0.504C11.2118 0.504 11.9318 0.688 12.5798 1.056C13.2358 1.424 13.7518 1.936 14.1278 2.592C14.5118 3.24 14.7038 3.972 14.7038 4.788C14.7038 5.612 14.5118 6.352 14.1278 7.008C13.7518 7.656 13.2358 8.164 12.5798 8.532C11.9238 8.9 11.2038 9.084 10.4198 9.084ZM10.4198 7.584C10.9238 7.584 11.3678 7.472 11.7518 7.248C12.1358 7.016 12.4358 6.688 12.6518 6.264C12.8678 5.84 12.9758 5.348 12.9758 4.788C12.9758 4.228 12.8678 3.74 12.6518 3.324C12.4358 2.9 12.1358 2.576 11.7518 2.352C11.3678 2.128 10.9238 2.016 10.4198 2.016C9.91575 2.016 9.46775 2.128 9.07575 2.352C8.69175 2.576 8.39175 2.9 8.17575 3.324C7.95975 3.74 7.85175 4.228 7.85175 4.788C7.85175 5.348 7.95975 5.84 8.17575 6.264C8.39175 6.688 8.69175 7.016 9.07575 7.248C9.46775 7.472 9.91575 7.584 10.4198 7.584ZM19.5656 4.704C20.0376 4.792 20.4256 5.028 20.7296 5.412C21.0336 5.796 21.1856 6.236 21.1856 6.732C21.1856 7.18 21.0736 7.576 20.8496 7.92C20.6336 8.256 20.3176 8.52 19.9016 8.712C19.4856 8.904 18.9936 9 18.4256 9H14.8136V0.624H18.2696C18.8376 0.624 19.3256 0.716 19.7336 0.9C20.1496 1.084 20.4616 1.34 20.6696 1.668C20.8856 1.996 20.9936 2.368 20.9936 2.784C20.9936 3.272 20.8616 3.68 20.5976 4.008C20.3416 4.336 19.9976 4.568 19.5656 4.704ZM16.4936 4.08H18.0296C18.4296 4.08 18.7376 3.992 18.9536 3.816C19.1696 3.632 19.2776 3.372 19.2776 3.036C19.2776 2.7 19.1696 2.44 18.9536 2.256C18.7376 2.072 18.4296 1.98 18.0296 1.98H16.4936V4.08ZM18.1856 7.632C18.5936 7.632 18.9096 7.536 19.1336 7.344C19.3656 7.152 19.4816 6.88 19.4816 6.528C19.4816 6.168 19.3616 5.888 19.1216 5.688C18.8816 5.48 18.5576 5.376 18.1496 5.376H16.4936V7.632H18.1856ZM24.3126 0.624C25.1926 0.624 25.9646 0.796 26.6286 1.14C27.3006 1.484 27.8166 1.976 28.1766 2.616C28.5446 3.248 28.7286 3.984 28.7286 4.824C28.7286 5.664 28.5446 6.4 28.1766 7.032C27.8166 7.656 27.3006 8.14 26.6286 8.484C25.9646 8.828 25.1926 9 24.3126 9H21.3846V0.624H24.3126ZM24.2526 7.572C25.1326 7.572 25.8126 7.332 26.2926 6.852C26.7726 6.372 27.0126 5.696 27.0126 4.824C27.0126 3.952 26.7726 3.272 26.2926 2.784C25.8126 2.288 25.1326 2.04 24.2526 2.04H23.0646V7.572H24.2526ZM33.1661 9L31.3181 5.736H30.5261V9H28.8461V0.624H31.9901C32.6381 0.624 33.1901 0.74 33.6461 0.972C34.1021 1.196 34.4421 1.504 34.6661 1.896C34.8981 2.28 35.0141 2.712 35.0141 3.192C35.0141 3.744 34.8541 4.244 34.5341 4.692C34.2141 5.132 33.7381 5.436 33.1061 5.604L35.1101 9H33.1661ZM30.5261 4.476H31.9301C32.3861 4.476 32.7261 4.368 32.9501 4.152C33.1741 3.928 33.2861 3.62 33.2861 3.228C33.2861 2.844 33.1741 2.548 32.9501 2.34C32.7261 2.124 32.3861 2.016 31.9301 2.016H30.5261V4.476ZM37.0736 1.98V4.08H39.8936V5.412H37.0736V7.632H40.2536V9H35.3936V0.611999H40.2536V1.98H37.0736ZM45.7763 7.404H42.4403L41.8883 9H40.1243L43.1363 0.611999H45.0923L48.1043 9H46.3283L45.7763 7.404ZM45.3203 6.06L44.1083 2.556L42.8963 6.06H45.3203ZM57.2222 0.624V9H55.5422V3.552L53.2982 9H52.0262L49.7702 3.552V9H48.0902V0.624H49.9982L52.6622 6.852L55.3262 0.624H57.2222ZM59.4232 1.98V4.08H62.2432V5.412H59.4232V7.632H62.6032V9H57.7432V0.611999H62.6032V1.98H59.4232ZM64.6699 3.384C64.8859 3.032 65.1659 2.756 65.5099 2.556C65.8619 2.356 66.2619 2.256 66.7099 2.256V4.02H66.2659C65.7379 4.02 65.3379 4.144 65.0659 4.392C64.8019 4.64 64.6699 5.072 64.6699 5.688V9H62.9899V2.352H64.6699V3.384Z" fill="#0F0F0F"/>
</svg>
