<svg width="22" height="16" viewBox="0 0 22 16" fill="none" xmlns="http://www.w3.org/2000/svg">
<path d="M11 1C4.69295 1 1.63295 6.683 1.08995 7.808C1.06057 7.86774 1.04529 7.93343 1.04529 8C1.04529 8.06657 1.06057 8.13226 1.08995 8.192C1.63195 9.317 4.69195 15 11 15C17.308 15 20.367 9.317 20.91 8.192C20.9393 8.13226 20.9546 8.06657 20.9546 8C20.9546 7.93343 20.9393 7.86774 20.91 7.808C20.368 6.683 17.308 1 11 1Z" stroke="#0F0F0F" stroke-width="2" stroke-linecap="round" stroke-linejoin="round"/>
<path d="M11 11C12.6569 11 14 9.65685 14 8C14 6.34315 12.6569 5 11 5C9.34315 5 8 6.34315 8 8C8 9.65685 9.34315 11 11 11Z" stroke="#0F0F0F" stroke-width="2" stroke-linecap="round" stroke-linejoin="round"/>
</svg>
