<svg width="18" height="20" viewBox="0 0 18 20" fill="none" xmlns="http://www.w3.org/2000/svg">
<path d="M2.84304 2.56801C4.47598 0.935075 6.69072 0.0177002 9.00004 0.0177002C11.3094 0.0177002 13.5241 0.935075 15.157 2.56801C16.79 4.20095 17.7074 6.41569 17.7074 8.72501C17.7074 11.0343 16.79 13.2491 15.157 14.882L13.97 16.056C13.095 16.914 11.96 18.018 10.564 19.368C10.1445 19.7737 9.58368 20.0005 9.00004 20.0005C8.41641 20.0005 7.85562 19.7737 7.43604 19.368L3.94505 15.972C3.50505 15.541 3.13905 15.178 2.84304 14.882C2.03446 14.0735 1.39305 13.1136 0.955443 12.0572C0.517837 11.0008 0.292603 9.86849 0.292603 8.72501C0.292603 7.58154 0.517837 6.44927 0.955443 5.39284C1.39305 4.33642 2.03446 3.37654 2.84304 2.56801ZM14.096 3.62801C13.4267 2.95873 12.6321 2.42784 11.7576 2.06565C10.883 1.70347 9.94575 1.51707 8.99919 1.51712C8.05264 1.51717 7.11536 1.70365 6.24088 2.06592C5.36639 2.4282 4.57183 2.95917 3.90255 3.62851C3.23326 4.29786 2.70237 5.09248 2.34018 5.967C1.978 6.84152 1.79161 7.77881 1.79165 8.72537C1.7917 9.67192 1.97818 10.6092 2.34046 11.4837C2.70273 12.3582 3.2337 13.1527 3.90304 13.822L5.39104 15.29C6.20904 16.091 7.23904 17.091 8.47904 18.29C8.61887 18.425 8.80566 18.5005 9.00004 18.5005C9.19443 18.5005 9.38122 18.425 9.52104 18.29L12.916 14.99C13.386 14.529 13.779 14.14 14.096 13.822C15.4475 12.4704 16.2068 10.6374 16.2068 8.72601C16.2068 6.81466 15.4475 4.98158 14.096 3.63001V3.62801ZM9.00004 5.99901C9.39427 5.99901 9.78464 6.07666 10.1489 6.22753C10.5131 6.37839 10.844 6.59952 11.1228 6.87828C11.4015 7.15704 11.6227 7.48798 11.7735 7.8522C11.9244 8.21642 12.002 8.60679 12.002 9.00101C12.002 9.39524 11.9244 9.78561 11.7735 10.1498C11.6227 10.514 11.4015 10.845 11.1228 11.1237C10.844 11.4025 10.5131 11.6236 10.1489 11.7745C9.78464 11.9254 9.39427 12.003 9.00004 12.003C8.21348 11.9887 7.46399 11.6661 6.91282 11.1048C6.36164 10.5435 6.05283 9.7882 6.05283 9.00151C6.05283 8.21482 6.36164 7.45957 6.91282 6.89824C7.46399 6.33691 8.21348 6.01437 9.00004 6.00001V5.99901ZM9.00004 7.49901C8.60169 7.49901 8.21965 7.65726 7.93797 7.93894C7.65629 8.22062 7.49804 8.60266 7.49804 9.00101C7.49804 9.39937 7.65629 9.78141 7.93797 10.0631C8.21965 10.3448 8.60169 10.503 9.00004 10.503C9.39156 10.4929 9.76364 10.3303 10.037 10.0498C10.3103 9.76931 10.4633 9.39316 10.4633 9.00151C10.4633 8.60987 10.3103 8.23371 10.037 7.95323C9.76364 7.67275 9.39156 7.51012 9.00004 7.50001V7.49901Z" fill="#24285B"/>
</svg>
