<svg width="22" height="21" viewBox="0 0 22 21" fill="none" xmlns="http://www.w3.org/2000/svg">
<path fill-rule="evenodd" clip-rule="evenodd" d="M19.924 9.75H17.23C15.806 9.75 14.749 10.809 14.749 12C14.749 13.191 15.806 14.25 17.229 14.25H19.947C20.153 14.237 20.242 14.098 20.249 14.014V9.986C20.242 9.902 20.153 9.763 19.947 9.751H19.923L19.924 9.75ZM19.85 8.25C19.916 8.25 19.98 8.25 20.04 8.254C20.91 8.307 21.681 8.964 21.746 9.882C21.75 9.942 21.75 10.007 21.75 10.067V13.933C21.75 13.993 21.75 14.058 21.746 14.118C21.681 15.036 20.91 15.693 20.039 15.747C19.98 15.75 19.916 15.75 19.849 15.75H17.231C15.086 15.75 13.25 14.122 13.25 12C13.25 9.878 15.086 8.25 17.23 8.25H19.85Z" fill="#24285B"/>
<path d="M18 12C18 12.2652 17.8946 12.5196 17.7071 12.7071C17.5196 12.8946 17.2652 13 17 13C16.7348 13 16.4804 12.8946 16.2929 12.7071C16.1054 12.5196 16 12.2652 16 12C16 11.7348 16.1054 11.4804 16.2929 11.2929C16.4804 11.1054 16.7348 11 17 11C17.2652 11 17.5196 11.1054 17.7071 11.2929C17.8946 11.4804 18 11.7348 18 12V12Z" fill="#24285B"/>
<path fill-rule="evenodd" clip-rule="evenodd" d="M19.85 8.25C20.1369 8.23915 20.4225 8.29387 20.685 8.41C20.578 6.804 20.283 5.566 19.359 4.641C18.61 3.893 17.661 3.561 16.489 3.403L16.447 3.398C16.4365 3.39006 16.4259 3.38239 16.415 3.375L12.679 0.897997C12.031 0.475073 11.2738 0.249878 10.5 0.249878C9.72616 0.249878 8.96905 0.475073 8.321 0.897997L4.586 3.375C4.5748 3.38238 4.5638 3.39004 4.553 3.398L4.511 3.403C3.339 3.561 2.39 3.893 1.641 4.641C0.893 5.39 0.561 6.339 0.403 7.511C0.25 8.651 0.25 10.106 0.25 11.944V12.056C0.25 13.894 0.25 15.35 0.403 16.489C0.561 17.661 0.893 18.61 1.641 19.359C2.39 20.107 3.339 20.439 4.511 20.597C5.651 20.75 7.106 20.75 8.944 20.75H12.056C13.894 20.75 15.35 20.75 16.489 20.597C17.661 20.439 18.61 20.107 19.359 19.359C20.283 18.434 20.578 17.196 20.685 15.589C20.483 15.679 20.265 15.733 20.039 15.747C19.98 15.75 19.916 15.75 19.849 15.75H19.168C19.054 17.091 18.797 17.8 18.298 18.298C17.875 18.721 17.295 18.975 16.289 19.11C15.262 19.248 13.907 19.25 12 19.25H9C7.093 19.25 5.739 19.248 4.71 19.11C3.705 18.975 3.125 18.721 2.702 18.298C2.279 17.875 2.025 17.295 1.89 16.289C1.752 15.262 1.75 13.907 1.75 12C1.75 10.093 1.752 8.739 1.89 7.71C2.025 6.705 2.279 6.125 2.702 5.702C3.125 5.279 3.705 5.025 4.711 4.89C5.739 4.752 7.093 4.75 9 4.75H12C13.907 4.75 15.262 4.752 16.29 4.89C17.295 5.025 17.875 5.279 18.298 5.702C18.797 6.2 19.054 6.909 19.168 8.25H19.85ZM8.944 3.25H12.056C12.573 3.25 13.059 3.25 13.516 3.253L11.85 2.148C11.05 1.618 9.95 1.618 9.15 2.148L7.483 3.253C7.941 3.25 8.427 3.25 8.943 3.25H8.944Z" fill="#24285B"/>
<path d="M5 7.25C4.80109 7.25 4.61032 7.32902 4.46967 7.46967C4.32902 7.61032 4.25 7.80109 4.25 8C4.25 8.19891 4.32902 8.38968 4.46967 8.53033C4.61032 8.67098 4.80109 8.75 5 8.75H9C9.19891 8.75 9.38968 8.67098 9.53033 8.53033C9.67098 8.38968 9.75 8.19891 9.75 8C9.75 7.80109 9.67098 7.61032 9.53033 7.46967C9.38968 7.32902 9.19891 7.25 9 7.25H5Z" fill="#24285B"/>
<path d="M18 12C18 12.2652 17.8946 12.5196 17.7071 12.7071C17.5196 12.8946 17.2652 13 17 13C16.7348 13 16.4804 12.8946 16.2929 12.7071C16.1054 12.5196 16 12.2652 16 12C16 11.7348 16.1054 11.4804 16.2929 11.2929C16.4804 11.1054 16.7348 11 17 11C17.2652 11 17.5196 11.1054 17.7071 11.2929C17.8946 11.4804 18 11.7348 18 12Z" fill="#24285B"/>
</svg>
